<svg viewBox="0 0 23 26" fill="currentColor" xmlns="http://www.w3.org/2000/svg">
<g id="Calendar">
<g id="Vector">
<path d="M14.1647 1.94041C14.1647 1.41888 14.5875 0.996094 15.109 0.996094C15.6305 0.996094 16.0533 1.41888 16.0533 1.94041V5.71766C16.0533 6.23919 15.6305 6.66197 15.109 6.66197C14.5875 6.66197 14.1647 6.23919 14.1647 5.71766V1.94041Z" fill="currentColor"/>
<path d="M13.2204 2.91725C12.6269 2.89492 11.998 2.88472 11.3318 2.88472C10.6655 2.88472 10.0366 2.89492 9.44313 2.91725V5.71766C9.44313 6.76072 8.59757 7.60629 7.55451 7.60629C6.51145 7.60629 5.66588 6.76072 5.66588 5.71766V3.33388C2.35351 4.05824 0.85691 5.78567 0.290906 9.40136C0.204405 9.95394 0.64442 10.4392 1.20373 10.4392H21.4598C22.0191 10.4392 22.4591 9.95394 22.3726 9.40136C21.8066 5.78567 20.31 4.05824 16.9976 3.33388V5.71766C16.9976 6.76072 16.1521 7.60629 15.109 7.60629C14.066 7.60629 13.2204 6.76072 13.2204 5.71766V2.91725Z" fill="currentColor"/>
<path fillRule="evenodd" clipRule="evenodd" d="M11.3318 25.5482C2.00006 25.5482 0 23.5482 0 14.2165C0 13.8805 0.00259191 13.5541 0.00802447 13.2369C0.0167192 12.7293 0.434262 12.3279 0.941975 12.3279H21.7215C22.2293 12.3279 22.6468 12.7293 22.6555 13.2369C22.6609 13.5541 22.6635 13.8805 22.6635 14.2165C22.6635 23.5482 20.6635 25.5482 11.3318 25.5482ZM4.72157 16.1051C4.72157 15.5836 5.14435 15.1608 5.66588 15.1608H8.49882C9.02035 15.1608 9.44313 15.5836 9.44313 16.1051C9.44313 16.6266 9.02035 17.0494 8.49882 17.0494H5.66588C5.14435 17.0494 4.72157 16.6266 4.72157 16.1051ZM5.66588 18.938C5.14435 18.938 4.72157 19.3608 4.72157 19.8824C4.72157 20.4039 5.14435 20.8267 5.66588 20.8267H8.49882C9.02035 20.8267 9.44313 20.4039 9.44313 19.8824C9.44313 19.3608 9.02035 18.938 8.49882 18.938H5.66588ZM13.2204 16.1051C13.2204 15.5836 13.6432 15.1608 14.1647 15.1608H16.9976C17.5192 15.1608 17.942 15.5836 17.942 16.1051C17.942 16.6266 17.5192 17.0494 16.9976 17.0494H14.1647C13.6432 17.0494 13.2204 16.6266 13.2204 16.1051ZM14.1647 18.938C13.6432 18.938 13.2204 19.3608 13.2204 19.8824C13.2204 20.4039 13.6432 20.8267 14.1647 20.8267H16.9976C17.5192 20.8267 17.942 20.4039 17.942 19.8824C17.942 19.3608 17.5192 18.938 16.9976 18.938H14.1647Z" fill="currentColor"/>
<path d="M6.61019 1.94041C6.61019 1.41888 7.03298 0.996094 7.55451 0.996094C8.07604 0.996094 8.49882 1.41888 8.49882 1.94041V5.71766C8.49882 6.23919 8.07604 6.66197 7.55451 6.66197C7.03298 6.66197 6.61019 6.23919 6.61019 5.71766V1.94041Z" fill="currentColor"/>
</g>
</g>
</svg>
