<svg viewBox="0 0 23 23" fill="currentColor" xmlns="http://www.w3.org/2000/svg">
<g id="Comment" >
<path id="Subtract" fillRule="evenodd" clipRule="evenodd" d="M22.6635 10.2856C22.6635 1.8917 20.6635 0.212891 11.3318 0.212891C2.00006 0.212891 0 1.99072 0 10.2856C0 15.6342 0.944544 19.0992 5.19395 19.0992C7.46489 19.0992 8.14044 20.1779 8.76949 21.1824C9.31753 22.0576 9.83029 22.8764 11.332 22.8764C12.8338 22.8764 13.3465 22.0576 13.8946 21.1824C14.5236 20.1779 15.1991 19.0992 17.47 19.0992C21.7194 19.0992 22.6635 15.7416 22.6635 10.2856ZM7.55451 11.5447C8.07604 11.5447 8.49882 11.1219 8.49882 10.6003C8.49882 10.0788 8.07604 9.65602 7.55451 9.65602C7.03298 9.65602 6.61019 10.0788 6.61019 10.6003C6.61019 11.1219 7.03298 11.5447 7.55451 11.5447ZM12.2761 10.6003C12.2761 11.1219 11.8533 11.5447 11.3318 11.5447C10.8102 11.5447 10.3874 11.1219 10.3874 10.6003C10.3874 10.0788 10.8102 9.65602 11.3318 9.65602C11.8533 9.65602 12.2761 10.0788 12.2761 10.6003ZM15.109 11.5447C15.6305 11.5447 16.0533 11.1219 16.0533 10.6003C16.0533 10.0788 15.6305 9.65602 15.109 9.65602C14.5875 9.65602 14.1647 10.0788 14.1647 10.6003C14.1647 11.1219 14.5875 11.5447 15.109 11.5447Z" fill="currentColor"/>
</g>
</svg>
