<svg viewBox="0 0 17 19" fill="currentColor" xmlns="http://www.w3.org/2000/svg">
<g id="Exit">
<path id="Subtract" fillRule="evenodd" clipRule="evenodd" d="M0.169922 9.46883C0.169922 16.0959 0.803026 16.288 5.62042 17.7502C5.95599 17.8521 6.3122 17.9602 6.68957 18.077C9.86692 19.0602 11.52 18.5086 12.3651 16.6412C13.2594 16.6333 14.0174 16.5776 14.6322 16.3967C15.3463 16.1867 15.891 15.8006 16.2457 15.1527C16.5723 14.5561 16.7035 13.7948 16.7672 12.9051C16.8312 12.0094 16.8312 10.8794 16.8312 9.49101V9.43656C16.8312 8.04824 16.8312 6.91874 16.7672 6.024C16.7035 5.13528 16.5723 4.37489 16.2453 3.77917C15.8901 3.13213 15.3447 2.74774 14.6311 2.53906C14.0167 2.35939 13.259 2.30425 12.3651 2.29643C11.52 0.429114 9.86692 -0.122516 6.68957 0.860709C6.31212 0.977508 5.95619 1.08554 5.62057 1.1874C0.803039 2.64958 0.169922 2.84173 0.169922 9.46883ZM14.2197 15.0214C13.8839 15.1202 13.4351 15.1751 12.8182 15.1967C13.1306 13.7287 13.2092 11.8036 13.2092 9.46883C13.2092 7.13403 13.1306 5.20887 12.8182 3.74086C13.4355 3.76224 13.8846 3.81669 14.2208 3.91501C14.6278 4.03402 14.8295 4.20414 14.9723 4.46435C15.1434 4.77589 15.2611 5.27551 15.322 6.12548C15.382 6.96358 15.3824 8.0426 15.3824 9.4638C15.3824 10.885 15.382 11.9647 15.322 12.8037C15.2611 13.6546 15.1433 14.1559 14.9719 14.469C14.8286 14.731 14.6262 14.9019 14.2197 15.0214ZM9.58718 10.1862C9.18711 10.1862 8.86278 9.86502 8.86278 9.46885C8.86278 9.07267 9.18711 8.7515 9.58718 8.7515C9.98726 8.7515 10.3116 9.07267 10.3116 9.46885C10.3116 9.86502 9.98726 10.1862 9.58718 10.1862Z" fill="currentColor"/>
</g>
</svg>
