<svg className="w-5 h-5" viewBox="0 0 18 18" fill="currentColor" xmlns="http://www.w3.org/2000/svg">
<g id="Lock">
<g id="Subtract">
<path d="M7.5 11.25C7.5 12.0784 8.17157 12.75 9 12.75C9.82843 12.75 10.5 12.0784 10.5 11.25C10.5 10.4216 9.82843 9.75 9 9.75C8.17157 9.75 7.5 10.4216 7.5 11.25Z" fill="currentColor"/>
<path fill-rule="evenodd" clip-rule="evenodd" d="M12.592 1.31444C13.5363 2.15377 14.1622 3.37069 14.2415 4.91422C17.2266 5.61918 18 7.37149 18 11.25C18 16.8086 16.4115 18 9 18C1.5885 18 0 16.8086 0 11.25C0 7.37149 0.773362 5.61917 3.75854 4.91422C3.83781 3.37069 4.46373 2.15377 5.40798 1.31444C6.40587 0.427423 7.7152 0 9 0C10.2848 0 11.5941 0.427423 12.592 1.31444ZM9 4.5C7.54914 4.5 6.32143 4.54565 5.28509 4.66079C5.40701 3.67018 5.83604 2.94087 6.40452 2.43556C7.09413 1.82258 8.0348 1.5 9 1.5C9.9652 1.5 10.9059 1.82258 11.5955 2.43556C12.164 2.94087 12.593 3.67018 12.7149 4.66079C11.6786 4.54565 10.4509 4.5 9 4.5ZM6 11.25C6 12.9069 7.34315 14.25 9 14.25C10.6569 14.25 12 12.9069 12 11.25C12 9.59315 10.6569 8.25 9 8.25C7.34315 8.25 6 9.59315 6 11.25Z" fill="currentColor"/>
</g>
</g>
</svg>
