<svg viewBox="0 0 20 19" fill="currentColor" xmlns="http://www.w3.org/2000/svg">
<g id="Megaphone">
<path id="Union" d="M3.56791 4.59289C1.59741 4.59289 0 6.22508 0 8.23848C0 10.1294 1.40898 11.6841 3.21274 11.8662L5.11754 17.9666C5.30933 18.5809 5.87987 18.9993 6.52549 18.9993C7.33984 18.9993 8 18.3416 8 17.5302V12.1517C9.79764 12.5993 11.5004 13.5408 13.1446 14.4499C13.7227 14.7695 14.2937 15.0852 14.8589 15.374C18.0311 16.9946 18.8863 13.7858 19.1161 11.0151C19.4231 10.9938 19.6215 10.9386 19.7657 10.7949C20 10.5614 20 10.1856 20 9.43413V7.04283C20 6.29131 20 5.91556 19.7657 5.68209C19.6215 5.53839 19.4231 5.48314 19.1161 5.4619C18.8863 2.69119 18.0311 -0.517638 14.8589 1.10299C14.2937 1.39176 13.7228 1.7074 13.1446 2.02706C11.4655 2.95546 9.7252 3.91768 7.88519 4.35319C7.12485 4.53315 6.74468 4.62314 6.57234 4.84042C6.4 5.05771 6.4 5.39737 6.4 6.07669V7.04283C6.4 7.48306 6.04183 7.83993 5.6 7.83993C5.15817 7.83993 4.8 7.48306 4.8 7.04283V5.82052C4.8 5.41907 4.8 5.21835 4.72909 5.06191C4.64893 4.88506 4.50677 4.74341 4.32928 4.66354C4.17227 4.59289 3.97082 4.59289 3.56791 4.59289Z" fill="currentColor"/>
</g>
</svg>
