<svg viewBox="0 0 21 24" fill="currentColor" xmlns="http://www.w3.org/2000/svg">
<g id="Notification 1">
<g id="Union">
<path d="M11.7916 1.05206C11.7925 1.03479 11.793 1.01746 11.793 1C11.793 0.447693 11.3452 0 10.793 0C10.2407 0 9.79298 0.447693 9.79298 1C9.79298 1.01746 9.79347 1.03485 9.79432 1.05212C6.44666 1.53461 3.29664 5.2995 3.79298 9.5C4.05006 10.7854 3.24061 11.4664 2.39808 12.1752C1.60194 12.845 0.776377 13.5396 0.793222 14.7925C0.793222 16.5484 1.79298 17.5 3.26124 17.9719C3.26124 17.9719 5.95033 19 10.7931 19C15.6359 19 18.325 17.9719 18.325 17.9719C19.7932 17.5 20.7932 16.5 20.793 14.7925C20.7929 13.5288 19.9678 12.8339 19.176 12.1672C18.3373 11.4609 17.536 10.7861 17.7932 9.5C18.2896 5.29938 15.1394 1.53442 11.7916 1.05206Z" fill="currentColor"/>
<path d="M7.22035 20.2C6.77845 20.5314 6.68897 21.1581 7.02027 21.6C8.9203 24.1334 12.7203 24.1334 14.6204 21.6C14.9517 21.1581 14.8622 20.5314 14.4203 20.2C13.9785 19.8687 13.3517 19.9582 13.0203 20.4C11.9203 21.8666 9.72035 21.8666 8.62037 20.4C8.28895 19.9582 7.66212 19.8687 7.22035 20.2Z" fill="currentColor"/>
</g>
</g>
</svg>
