<svg viewBox="0 0 23 23" fill="currentColor" xmlns="http://www.w3.org/2000/svg">
<g id="Home">
<g id="Subtract">
<path d="M0.694231 18.3483C-0.27637 13.9128 -0.0139369 9.97208 0.209001 8.49172C0.368209 7.43455 5.99379 3.11189 9.19706 0.726917C10.4937 -0.238451 12.2568 -0.242816 13.5575 0.716966C16.7877 3.10048 22.4684 7.43531 22.5383 8.49172C22.5405 8.52504 22.5428 8.55962 22.5452 8.59543C22.6486 10.147 22.9061 14.0129 22.0526 18.3483C21.5675 20.8124 20.1295 21.9248 17.1984 22.2909C16.9894 22.317 16.7809 22.3417 16.5729 22.3651C16.295 22.3963 16.0533 22.1773 16.0533 21.8971V15.2167C16.0533 13.6487 14.785 12.3776 13.2204 12.3776L9.44313 12.3776C7.87854 12.3776 6.61019 13.6487 6.61019 15.2167L6.61019 21.8891C6.61019 22.1699 6.36756 22.3891 6.08923 22.3568C5.90917 22.3359 5.72889 22.3139 5.54836 22.2909C2.61826 21.9172 1.22959 20.7948 0.694231 18.3483Z" fill="currentColor"/>
<path d="M8.49881 22.1291C8.49881 22.3789 8.69246 22.5859 8.9413 22.5992C10.5314 22.6844 12.1174 22.685 13.7215 22.6009C13.9706 22.5879 14.1647 22.3807 14.1647 22.1307V15.2167C14.1647 14.694 13.7419 14.2703 13.2204 14.2703L9.44313 14.2703C8.9216 14.2703 8.49881 14.694 8.49881 15.2167L8.49881 22.1291Z" fill="currentColor"/>
</g>
</g>
</svg>
